<svg width="21" height="31" viewBox="0 0 21 31" fill="none" xmlns="http://www.w3.org/2000/svg">
<path d="M13.6667 23.7857V22.2322C13.6667 20.3549 15.7474 18.5793 17.0972 17.3125C18.9999 15.5279 20 13.1302 20 10.3215C20 5.14289 15.7956 1.00004 10.5 1.00004C9.25149 0.996619 8.01458 1.23539 6.86042 1.70263C5.70625 2.16986 4.6576 2.85634 3.77475 3.7226C2.8919 4.58885 2.19227 5.61779 1.71609 6.75026C1.2399 7.88273 0.996554 9.09639 1.00004 10.3215C1.00004 13.0298 2.04306 15.59 3.90281 17.3125C5.24534 18.556 7.33336 20.3355 7.33336 22.2322V23.7857M8.38891 30H12.6111M7.33336 26.8929H13.6667M10.5 23.7857V15.5M13 15C13 15 11.5849 15 10.5 15C9.41513 15 8 15 8 15" stroke="white" stroke-width="2" stroke-linecap="round" stroke-linejoin="round"/>
</svg>
