<svg width="20" height="20" viewBox="0 0 20 20" fill="none" xmlns="http://www.w3.org/2000/svg">
<path d="M0 4.28571C0 3.14907 0.451529 2.05898 1.25526 1.25526C2.05898 0.451529 3.14907 0 4.28571 0H6.42857C6.61801 0 6.79969 0.075255 6.93365 0.20921C7.0676 0.343164 7.14286 0.524845 7.14286 0.714286C7.14286 0.903726 7.0676 1.08541 6.93365 1.21936C6.79969 1.35332 6.61801 1.42857 6.42857 1.42857H4.28571C3.52795 1.42857 2.80123 1.72959 2.26541 2.26541C1.72959 2.80123 1.42857 3.52795 1.42857 4.28571V6.42857C1.42857 6.61801 1.35332 6.79969 1.21936 6.93365C1.08541 7.0676 0.903726 7.14286 0.714286 7.14286C0.524845 7.14286 0.343164 7.0676 0.20921 6.93365C0.075255 6.79969 0 6.61801 0 6.42857V4.28571ZM12.8571 0.714286C12.8571 0.524845 12.9324 0.343164 13.0664 0.20921C13.2003 0.075255 13.382 0 13.5714 0H15.7143C16.8509 0 17.941 0.451529 18.7447 1.25526C19.5485 2.05898 20 3.14907 20 4.28571V6.42857C20 6.61801 19.9247 6.79969 19.7908 6.93365C19.6568 7.0676 19.4752 7.14286 19.2857 7.14286C19.0963 7.14286 18.9146 7.0676 18.7806 6.93365C18.6467 6.79969 18.5714 6.61801 18.5714 6.42857V4.28571C18.5714 3.52795 18.2704 2.80123 17.7346 2.26541C17.1988 1.72959 16.472 1.42857 15.7143 1.42857H13.5714C13.382 1.42857 13.2003 1.35332 13.0664 1.21936C12.9324 1.08541 12.8571 0.903726 12.8571 0.714286ZM0.714286 12.8571C0.903726 12.8571 1.08541 12.9324 1.21936 13.0664C1.35332 13.2003 1.42857 13.382 1.42857 13.5714V15.7143C1.42857 16.472 1.72959 17.1988 2.26541 17.7346C2.80123 18.2704 3.52795 18.5714 4.28571 18.5714H6.42857C6.61801 18.5714 6.79969 18.6467 6.93365 18.7806C7.0676 18.9146 7.14286 19.0963 7.14286 19.2857C7.14286 19.4752 7.0676 19.6568 6.93365 19.7908C6.79969 19.9247 6.61801 20 6.42857 20H4.28571C3.14907 20 2.05898 19.5485 1.25526 18.7447C0.451529 17.941 0 16.8509 0 15.7143V13.5714C0 13.382 0.075255 13.2003 0.20921 13.0664C0.343164 12.9324 0.524845 12.8571 0.714286 12.8571ZM19.2857 12.8571C19.4752 12.8571 19.6568 12.9324 19.7908 13.0664C19.9247 13.2003 20 13.382 20 13.5714V15.7143C20 16.8509 19.5485 17.941 18.7447 18.7447C17.941 19.5485 16.8509 20 15.7143 20H13.5714C13.382 20 13.2003 19.9247 13.0664 19.7908C12.9324 19.6568 12.8571 19.4752 12.8571 19.2857C12.8571 19.0963 12.9324 18.9146 13.0664 18.7806C13.2003 18.6467 13.382 18.5714 13.5714 18.5714H15.7143C16.472 18.5714 17.1988 18.2704 17.7346 17.7346C18.2704 17.1988 18.5714 16.472 18.5714 15.7143V13.5714C18.5714 13.382 18.6467 13.2003 18.7806 13.0664C18.9146 12.9324 19.0963 12.8571 19.2857 12.8571ZM10 11.4286C10.3789 11.4286 10.7422 11.2781 11.0102 11.0102C11.2781 10.7422 11.4286 10.3789 11.4286 10C11.4286 9.62112 11.2781 9.25776 11.0102 8.98985C10.7422 8.72194 10.3789 8.57143 10 8.57143C9.62112 8.57143 9.25776 8.72194 8.98985 8.98985C8.72194 9.25776 8.57143 9.62112 8.57143 10C8.57143 10.3789 8.72194 10.7422 8.98985 11.0102C9.25776 11.2781 9.62112 11.4286 10 11.4286ZM4.28571 12.8571V8.57143C4.28571 8.19255 4.43622 7.82919 4.70413 7.56128C4.97204 7.29337 5.33541 7.14286 5.71429 7.14286H7.14286L8.14714 5.63571C8.27764 5.44012 8.4544 5.27976 8.66174 5.16886C8.86908 5.05797 9.10058 4.99996 9.33571 5H10.6643C10.8994 4.99996 11.1309 5.05797 11.3383 5.16886C11.5456 5.27976 11.7224 5.44012 11.8529 5.63571L12.8571 7.14286H14.2857C14.6646 7.14286 15.028 7.29337 15.2959 7.56128C15.5638 7.82919 15.7143 8.19255 15.7143 8.57143V12.8571C15.7143 13.236 15.5638 13.5994 15.2959 13.8673C15.028 14.1352 14.6646 14.2857 14.2857 14.2857H5.71429C5.33541 14.2857 4.97204 14.1352 4.70413 13.8673C4.43622 13.5994 4.28571 13.236 4.28571 12.8571ZM12.8571 10C12.8571 9.24224 12.5561 8.51551 12.0203 7.9797C11.4845 7.44388 10.7578 7.14286 10 7.14286C9.24224 7.14286 8.51551 7.44388 7.9797 7.9797C7.44388 8.51551 7.14286 9.24224 7.14286 10C7.14286 10.7578 7.44388 11.4845 7.9797 12.0203C8.51551 12.5561 9.24224 12.8571 10 12.8571C10.7578 12.8571 11.4845 12.5561 12.0203 12.0203C12.5561 11.4845 12.8571 10.7578 12.8571 10Z" fill="#F8F8F8"/>
</svg>
